<?xml version="1.0" encoding="utf-8"?>
<!DOCTYPE svg PUBLIC "-//W3C//DTD SVG 20010904//EN" "http://www.w3.org/TR/2001/REC-SVG-20010904/DTD/svg10.dtd">
<svg version="1.0" xmlns="http://www.w3.org/2000/svg" width="1174px" height="1138px" viewBox="0 0 1174 1138" preserveAspectRatio="xMidYMid meet">
 <g fill="#ff9d00">
  <path d="M8.9 1136.1 l-7.6 -0.6 19.5 -37.5 c89.4 -172.7 519.3 -993.7 568.9 -1086.8 l5.6 -10.4 9.2 17.9 c35.7 69.2 127.4 249.8 313 616.3 176.4 348.3 226.4 446.9 240.1 473.1 7.9 15.3 14.4 28 14.4 28.3 0 0.3 -65.5 0.6 -145.5 0.6 l-145.4 0 -1.5 -2.8 c-2.1 -4 -3.4 -12.6 -4.6 -30 -1.7 -24.1 -0.6 -33.3 10.5 -88.2 10 -49.4 10.7 -54.6 11.2 -81.5 0.7 -36 -2.3 -54.6 -12.3 -75.4 -10.1 -21.1 -20.9 -31.8 -38.1 -37.8 -7 -2.4 -9.2 -2.7 -21.8 -2.7 -11.8 0 -15.7 0.5 -24.8 2.7 -36 8.9 -82.3 35.6 -168.2 96.8 -80.6 57.4 -129.6 87.9 -175 108.8 -46.7 21.4 -94.9 33.4 -140 34.8 -29.1 0.9 -49.3 -1.6 -88 -10.8 -40.5 -9.6 -59.3 -12.7 -60.9 -10 -0.4 0.6 2 9.1 5.4 18.9 3.3 9.7 6.7 21.5 7.5 26.1 1.5 8.6 2 36 0.9 45.9 l-0.7 5.2 -82.1 -0.2 c-45.2 -0.1 -85.5 -0.4 -89.7 -0.7z m299.2 -134.4 c5.7 -4 21.4 -15.3 34.9 -25.2 80.7 -59 159 -111.4 219 -146.4 21.7 -12.7 60.3 -32 85.5 -42.8 48.8 -20.8 71.5 -26.9 103.7 -28 23 -0.8 36.8 1.6 51.3 8.9 7.1 3.6 11.6 6.9 21.2 15.9 8.9 8.4 11.1 9.7 12.1 7.2 0.4 -1 0.7 -13.7 0.7 -28.3 -0.1 -20.6 -0.5 -28.6 -1.8 -35.7 -3.4 -18.4 -9.8 -30.5 -22.2 -42.1 -13.2 -12.3 -25.4 -17 -47 -17.9 -30.8 -1.3 -67.4 8.2 -112.8 29.4 -77.1 35.9 -172.5 106.1 -251.2 184.8 -43.7 43.7 -106.5 117.8 -106.5 125.7 0 3.1 2.4 2.1 13.1 -5.5z m35.1 -136.4 c5.7 -4.8 19.5 -16.8 30.8 -26.8 113.4 -100.2 194.3 -160.7 256.3 -191.5 27.6 -13.8 61.6 -26.4 77.7 -29 4.9 -0.8 15.5 -1.1 30 -0.8 l22.5 0.4 8.1 3.2 c10.3 4.1 23.3 11.9 32.6 19.5 8.1 6.5 10.7 8.2 11.6 7.3 0.3 -0.4 1 -7.3 1.5 -15.4 1.3 -20.1 -0.1 -34.4 -4.4 -44.7 -8.8 -21.3 -28.6 -40.9 -46.9 -46.6 -14.3 -4.4 -45.3 -4.9 -68.4 -0.9 -12.5 2.1 -34.4 8.9 -50.3 15.5 -44.9 18.9 -103.1 59.8 -149.7 105.5 -42.3 41.4 -82 88.7 -120.1 143 -16.7 23.8 -43.6 64.1 -45.1 67.5 -2.8 6.8 -0.1 5.6 13.8 -6.2z m174.8 -283.4 c37.9 -39.3 76 -66.4 114.2 -81.3 29.3 -11.5 37.5 -12.7 89.1 -13.3 22.4 -0.3 40.7 -0.7 40.7 -1 0 -2.1 -9.5 -17.8 -16.1 -26.7 -19.6 -26.3 -48.6 -50.6 -85.6 -71.5 -13.9 -7.9 -44 -22.2 -61.1 -29 -28.5 -11.5 -71.3 -24.6 -87.1 -26.7 -5.3 -0.7 -5.3 -0.7 -4.6 1.7 0.4 1.3 3.5 7.8 6.8 14.4 8.9 17.9 12.6 29.1 15.9 48.5 1.7 10.1 2.1 16.7 2.2 34 0 23.4 -1.3 36.1 -6.5 62.6 -3.8 19.6 -19.8 78.3 -26.9 98.8 -2.4 7.2 -2.5 6.6 0.2 6.6 1.5 0 7.2 -5.1 18.8 -17.1z"/>
 </g>
</svg>