<svg xmlns="http://www.w3.org/2000/svg" width="561" height="271" viewBox="0 0 561 271" fill="none">
<path d="M192.37 0.119995H187.96V269.97H192.37V0.119995Z" fill="#0F2547"/>
<path d="M247.052 85.6745C243.692 85.6745 240.652 84.9385 237.932 83.4665C235.244 81.9625 233.132 79.9145 231.596 77.3225C230.06 74.6985 229.292 71.7545 229.292 68.4905C229.292 65.2265 230.06 62.2985 231.596 59.7065C233.132 57.0825 235.26 55.0345 237.98 53.5625C240.7 52.0585 243.74 51.3065 247.1 51.3065C249.724 51.3065 252.124 51.7545 254.3 52.6505C256.476 53.5145 258.332 54.8105 259.868 56.5385L256.748 59.5625C254.22 56.9065 251.068 55.5785 247.292 55.5785C244.796 55.5785 242.54 56.1385 240.524 57.2585C238.508 58.3785 236.924 59.9305 235.772 61.9145C234.652 63.8665 234.092 66.0585 234.092 68.4905C234.092 70.9225 234.652 73.1305 235.772 75.1145C236.924 77.0665 238.508 78.6025 240.524 79.7225C242.54 80.8425 244.796 81.4025 247.292 81.4025C251.036 81.4025 254.188 80.0585 256.748 77.3705L259.868 80.3945C258.332 82.1225 256.46 83.4345 254.252 84.3305C252.076 85.2265 249.676 85.6745 247.052 85.6745ZM275.861 85.5785C273.333 85.5785 271.061 85.0185 269.045 83.8985C267.029 82.7785 265.445 81.2425 264.293 79.2905C263.173 77.3065 262.613 75.0665 262.613 72.5705C262.613 70.0745 263.173 67.8505 264.293 65.8985C265.445 63.9145 267.029 62.3785 269.045 61.2905C271.061 60.1705 273.333 59.6105 275.861 59.6105C278.389 59.6105 280.645 60.1705 282.629 61.2905C284.645 62.3785 286.213 63.9145 287.333 65.8985C288.485 67.8505 289.061 70.0745 289.061 72.5705C289.061 75.0665 288.485 77.3065 287.333 79.2905C286.213 81.2425 284.645 82.7785 282.629 83.8985C280.645 85.0185 278.389 85.5785 275.861 85.5785ZM275.861 81.5465C277.493 81.5465 278.949 81.1785 280.229 80.4425C281.541 79.6745 282.565 78.6185 283.301 77.2745C284.037 75.8985 284.405 74.3305 284.405 72.5705C284.405 70.8105 284.037 69.2585 283.301 67.9145C282.565 66.5385 281.541 65.4825 280.229 64.7465C278.949 64.0105 277.493 63.6425 275.861 63.6425C274.229 63.6425 272.757 64.0105 271.445 64.7465C270.165 65.4825 269.141 66.5385 268.373 67.9145C267.637 69.2585 267.269 70.8105 267.269 72.5705C267.269 74.3305 267.637 75.8985 268.373 77.2745C269.141 78.6185 270.165 79.6745 271.445 80.4425C272.757 81.1785 274.229 81.5465 275.861 81.5465ZM309.018 59.6105C312.25 59.6105 314.81 60.5545 316.698 62.4425C318.618 64.2985 319.578 67.0345 319.578 70.6505V85.2905H314.97V71.1785C314.97 68.7145 314.378 66.8585 313.194 65.6105C312.01 64.3625 310.314 63.7385 308.106 63.7385C305.61 63.7385 303.642 64.4745 302.202 65.9465C300.762 67.3865 300.042 69.4665 300.042 72.1865V85.2905H295.434V59.8505H299.85V63.6905C300.778 62.3785 302.026 61.3705 303.594 60.6665C305.194 59.9625 307.002 59.6105 309.018 59.6105ZM335.402 85.5785C333.322 85.5785 331.322 85.3065 329.402 84.7625C327.482 84.1865 325.978 83.4665 324.89 82.6025L326.81 78.9545C327.93 79.7545 329.29 80.3945 330.89 80.8745C332.49 81.3545 334.106 81.5945 335.738 81.5945C339.77 81.5945 341.786 80.4425 341.786 78.1385C341.786 77.3705 341.514 76.7625 340.97 76.3145C340.426 75.8665 339.738 75.5465 338.906 75.3545C338.106 75.1305 336.954 74.8905 335.45 74.6345C333.402 74.3145 331.722 73.9465 330.41 73.5305C329.13 73.1145 328.026 72.4105 327.098 71.4185C326.17 70.4265 325.706 69.0345 325.706 67.2425C325.706 64.9385 326.666 63.0985 328.586 61.7225C330.506 60.3145 333.082 59.6105 336.314 59.6105C338.01 59.6105 339.706 59.8185 341.402 60.2345C343.098 60.6505 344.49 61.2105 345.578 61.9145L343.61 65.5625C341.53 64.2185 339.082 63.5465 336.266 63.5465C334.314 63.5465 332.826 63.8665 331.802 64.5065C330.778 65.1465 330.266 65.9945 330.266 67.0505C330.266 67.8825 330.554 68.5385 331.13 69.0185C331.706 69.4985 332.41 69.8505 333.242 70.0745C334.106 70.2985 335.306 70.5545 336.842 70.8425C338.89 71.1945 340.538 71.5785 341.786 71.9945C343.066 72.3785 344.154 73.0505 345.05 74.0105C345.946 74.9705 346.394 76.3145 346.394 78.0425C346.394 80.3465 345.402 82.1865 343.418 83.5625C341.466 84.9065 338.794 85.5785 335.402 85.5785ZM366.457 83.8025C365.785 84.3785 364.953 84.8265 363.961 85.1465C362.969 85.4345 361.945 85.5785 360.889 85.5785C358.329 85.5785 356.345 84.8905 354.937 83.5145C353.529 82.1385 352.825 80.1705 352.825 77.6105V63.6425H348.505V59.8505H352.825V54.2825H357.433V59.8505H364.729V63.6425H357.433V77.4185C357.433 78.7945 357.769 79.8505 358.441 80.5865C359.145 81.3225 360.137 81.6905 361.417 81.6905C362.825 81.6905 364.025 81.2905 365.017 80.4905L366.457 83.8025ZM376.444 64.1225C377.244 62.6505 378.428 61.5305 379.996 60.7625C381.564 59.9945 383.468 59.6105 385.708 59.6105V64.0745C385.452 64.0425 385.1 64.0265 384.652 64.0265C382.156 64.0265 380.188 64.7785 378.748 66.2825C377.34 67.7545 376.636 69.8665 376.636 72.6185V85.2905H372.028V59.8505H376.444V64.1225ZM415.427 59.8505V85.2905H411.059V81.4505C410.131 82.7625 408.899 83.7865 407.363 84.5225C405.859 85.2265 404.211 85.5785 402.419 85.5785C399.027 85.5785 396.355 84.6505 394.403 82.7945C392.451 80.9065 391.475 78.1385 391.475 74.4905V59.8505H396.083V73.9625C396.083 76.4265 396.675 78.2985 397.859 79.5785C399.043 80.8265 400.739 81.4505 402.947 81.4505C405.379 81.4505 407.299 80.7145 408.707 79.2425C410.115 77.7705 410.819 75.6905 410.819 73.0025V59.8505H415.427ZM435.288 85.5785C432.696 85.5785 430.376 85.0185 428.328 83.8985C426.312 82.7785 424.728 81.2425 423.576 79.2905C422.424 77.3065 421.848 75.0665 421.848 72.5705C421.848 70.0745 422.424 67.8505 423.576 65.8985C424.728 63.9145 426.312 62.3785 428.328 61.2905C430.376 60.1705 432.696 59.6105 435.288 59.6105C437.592 59.6105 439.64 60.0745 441.432 61.0025C443.256 61.9305 444.664 63.2745 445.656 65.0345L442.152 67.2905C441.352 66.0745 440.36 65.1625 439.176 64.5545C437.992 63.9465 436.68 63.6425 435.24 63.6425C433.576 63.6425 432.072 64.0105 430.728 64.7465C429.416 65.4825 428.376 66.5385 427.608 67.9145C426.872 69.2585 426.504 70.8105 426.504 72.5705C426.504 74.3625 426.872 75.9465 427.608 77.3225C428.376 78.6665 429.416 79.7065 430.728 80.4425C432.072 81.1785 433.576 81.5465 435.24 81.5465C436.68 81.5465 437.992 81.2425 439.176 80.6345C440.36 80.0265 441.352 79.1145 442.152 77.8985L445.656 80.1065C444.664 81.8665 443.256 83.2265 441.432 84.1865C439.64 85.1145 437.592 85.5785 435.288 85.5785ZM466.254 83.8025C465.582 84.3785 464.75 84.8265 463.758 85.1465C462.766 85.4345 461.742 85.5785 460.686 85.5785C458.126 85.5785 456.142 84.8905 454.734 83.5145C453.326 82.1385 452.622 80.1705 452.622 77.6105V63.6425H448.302V59.8505H452.622V54.2825H457.23V59.8505H464.526V63.6425H457.23V77.4185C457.23 78.7945 457.566 79.8505 458.238 80.5865C458.942 81.3225 459.934 81.6905 461.214 81.6905C462.622 81.6905 463.822 81.2905 464.814 80.4905L466.254 83.8025ZM471.825 59.8505H476.433V85.2905H471.825V59.8505ZM474.129 54.9545C473.233 54.9545 472.481 54.6665 471.873 54.0905C471.297 53.5145 471.009 52.8105 471.009 51.9785C471.009 51.1465 471.297 50.4425 471.873 49.8665C472.481 49.2585 473.233 48.9545 474.129 48.9545C475.025 48.9545 475.761 49.2425 476.337 49.8185C476.945 50.3625 477.249 51.0505 477.249 51.8825C477.249 52.7465 476.945 53.4825 476.337 54.0905C475.761 54.6665 475.025 54.9545 474.129 54.9545ZM496.127 85.5785C493.599 85.5785 491.327 85.0185 489.311 83.8985C487.295 82.7785 485.711 81.2425 484.559 79.2905C483.439 77.3065 482.879 75.0665 482.879 72.5705C482.879 70.0745 483.439 67.8505 484.559 65.8985C485.711 63.9145 487.295 62.3785 489.311 61.2905C491.327 60.1705 493.599 59.6105 496.127 59.6105C498.655 59.6105 500.911 60.1705 502.895 61.2905C504.911 62.3785 506.479 63.9145 507.599 65.8985C508.751 67.8505 509.327 70.0745 509.327 72.5705C509.327 75.0665 508.751 77.3065 507.599 79.2905C506.479 81.2425 504.911 82.7785 502.895 83.8985C500.911 85.0185 498.655 85.5785 496.127 85.5785ZM496.127 81.5465C497.759 81.5465 499.215 81.1785 500.495 80.4425C501.807 79.6745 502.831 78.6185 503.567 77.2745C504.303 75.8985 504.671 74.3305 504.671 72.5705C504.671 70.8105 504.303 69.2585 503.567 67.9145C502.831 66.5385 501.807 65.4825 500.495 64.7465C499.215 64.0105 497.759 63.6425 496.127 63.6425C494.495 63.6425 493.023 64.0105 491.711 64.7465C490.431 65.4825 489.407 66.5385 488.639 67.9145C487.903 69.2585 487.535 70.8105 487.535 72.5705C487.535 74.3305 487.903 75.8985 488.639 77.2745C489.407 78.6185 490.431 79.6745 491.711 80.4425C493.023 81.1785 494.495 81.5465 496.127 81.5465ZM529.284 59.6105C532.516 59.6105 535.076 60.5545 536.964 62.4425C538.884 64.2985 539.844 67.0345 539.844 70.6505V85.2905H535.236V71.1785C535.236 68.7145 534.644 66.8585 533.46 65.6105C532.276 64.3625 530.58 63.7385 528.372 63.7385C525.876 63.7385 523.908 64.4745 522.468 65.9465C521.028 67.3865 520.308 69.4665 520.308 72.1865V85.2905H515.7V59.8505H520.116V63.6905C521.044 62.3785 522.292 61.3705 523.86 60.6665C525.46 59.9625 527.268 59.6105 529.284 59.6105ZM232.028 110.691H246.188C249.74 110.691 252.892 111.395 255.644 112.803C258.396 114.211 260.524 116.195 262.028 118.755C263.564 121.283 264.332 124.195 264.332 127.491C264.332 130.787 263.564 133.715 262.028 136.275C260.524 138.803 258.396 140.771 255.644 142.179C252.892 143.587 249.74 144.291 246.188 144.291H232.028V110.691ZM245.9 140.115C248.62 140.115 251.004 139.587 253.052 138.531C255.132 137.475 256.732 136.003 257.852 134.115C258.972 132.195 259.532 129.987 259.532 127.491C259.532 124.995 258.972 122.803 257.852 120.915C256.732 118.995 255.132 117.507 253.052 116.451C251.004 115.395 248.62 114.867 245.9 114.867H236.828V140.115H245.9ZM294.004 131.715C294.004 132.067 293.972 132.531 293.908 133.107H273.268C273.556 135.347 274.532 137.155 276.196 138.531C277.892 139.875 279.988 140.547 282.484 140.547C285.524 140.547 287.972 139.523 289.828 137.475L292.372 140.451C291.22 141.795 289.78 142.819 288.052 143.523C286.356 144.227 284.452 144.579 282.34 144.579C279.652 144.579 277.268 144.035 275.188 142.947C273.108 141.827 271.492 140.275 270.34 138.291C269.22 136.307 268.66 134.067 268.66 131.571C268.66 129.107 269.204 126.883 270.292 124.899C271.412 122.915 272.932 121.379 274.852 120.291C276.804 119.171 278.996 118.611 281.428 118.611C283.86 118.611 286.02 119.171 287.908 120.291C289.828 121.379 291.316 122.915 292.372 124.899C293.46 126.883 294.004 129.155 294.004 131.715ZM281.428 122.499C279.22 122.499 277.364 123.171 275.86 124.515C274.388 125.859 273.524 127.619 273.268 129.795H289.588C289.332 127.651 288.452 125.907 286.948 124.563C285.476 123.187 283.636 122.499 281.428 122.499ZM322.446 118.851L311.31 144.291H306.606L295.47 118.851H300.27L309.006 139.251L317.934 118.851H322.446ZM349.036 131.715C349.036 132.067 349.004 132.531 348.94 133.107H328.3C328.588 135.347 329.564 137.155 331.228 138.531C332.924 139.875 335.02 140.547 337.516 140.547C340.556 140.547 343.004 139.523 344.86 137.475L347.404 140.451C346.252 141.795 344.812 142.819 343.084 143.523C341.388 144.227 339.484 144.579 337.372 144.579C334.684 144.579 332.3 144.035 330.22 142.947C328.14 141.827 326.524 140.275 325.372 138.291C324.252 136.307 323.692 134.067 323.692 131.571C323.692 129.107 324.236 126.883 325.324 124.899C326.444 122.915 327.964 121.379 329.884 120.291C331.836 119.171 334.028 118.611 336.46 118.611C338.892 118.611 341.052 119.171 342.94 120.291C344.86 121.379 346.348 122.915 347.404 124.899C348.492 126.883 349.036 129.155 349.036 131.715ZM336.46 122.499C334.252 122.499 332.396 123.171 330.892 124.515C329.42 125.859 328.556 127.619 328.3 129.795H344.62C344.364 127.651 343.484 125.907 341.98 124.563C340.508 123.187 338.668 122.499 336.46 122.499ZM355.434 108.675H360.042V144.291H355.434V108.675ZM379.736 144.579C377.208 144.579 374.936 144.019 372.92 142.899C370.904 141.779 369.32 140.243 368.168 138.291C367.048 136.307 366.488 134.067 366.488 131.571C366.488 129.075 367.048 126.851 368.168 124.899C369.32 122.915 370.904 121.379 372.92 120.291C374.936 119.171 377.208 118.611 379.736 118.611C382.264 118.611 384.52 119.171 386.504 120.291C388.52 121.379 390.088 122.915 391.208 124.899C392.36 126.851 392.936 129.075 392.936 131.571C392.936 134.067 392.36 136.307 391.208 138.291C390.088 140.243 388.52 141.779 386.504 142.899C384.52 144.019 382.264 144.579 379.736 144.579ZM379.736 140.547C381.368 140.547 382.824 140.179 384.104 139.443C385.416 138.675 386.44 137.619 387.176 136.275C387.912 134.899 388.28 133.331 388.28 131.571C388.28 129.811 387.912 128.259 387.176 126.915C386.44 125.539 385.416 124.483 384.104 123.747C382.824 123.011 381.368 122.643 379.736 122.643C378.104 122.643 376.632 123.011 375.32 123.747C374.04 124.483 373.016 125.539 372.248 126.915C371.512 128.259 371.144 129.811 371.144 131.571C371.144 133.331 371.512 134.899 372.248 136.275C373.016 137.619 374.04 138.675 375.32 139.443C376.632 140.179 378.104 140.547 379.736 140.547ZM412.797 118.611C415.261 118.611 417.469 119.155 419.421 120.243C421.373 121.331 422.893 122.851 423.981 124.803C425.101 126.755 425.661 129.011 425.661 131.571C425.661 134.131 425.101 136.403 423.981 138.387C422.893 140.339 421.373 141.859 419.421 142.947C417.469 144.035 415.261 144.579 412.797 144.579C410.973 144.579 409.293 144.227 407.757 143.523C406.253 142.819 404.973 141.795 403.917 140.451V153.603H399.309V118.851H403.725V122.883C404.749 121.475 406.045 120.419 407.613 119.715C409.181 118.979 410.909 118.611 412.797 118.611ZM412.413 140.547C414.045 140.547 415.501 140.179 416.781 139.443C418.093 138.675 419.117 137.619 419.853 136.275C420.621 134.899 421.005 133.331 421.005 131.571C421.005 129.811 420.621 128.259 419.853 126.915C419.117 125.539 418.093 124.483 416.781 123.747C415.501 123.011 414.045 122.643 412.413 122.643C410.813 122.643 409.357 123.027 408.045 123.795C406.765 124.531 405.741 125.571 404.973 126.915C404.237 128.259 403.869 129.811 403.869 131.571C403.869 133.331 404.237 134.899 404.973 136.275C405.709 137.619 406.733 138.675 408.045 139.443C409.357 140.179 410.813 140.547 412.413 140.547ZM463.852 118.611C467.052 118.611 469.58 119.539 471.436 121.395C473.324 123.251 474.268 126.003 474.268 129.651V144.291H469.66V130.179C469.66 127.715 469.084 125.859 467.932 124.611C466.812 123.363 465.196 122.739 463.084 122.739C460.748 122.739 458.892 123.475 457.516 124.947C456.14 126.387 455.452 128.467 455.452 131.187V144.291H450.844V130.179C450.844 127.715 450.268 125.859 449.116 124.611C447.996 123.363 446.38 122.739 444.268 122.739C441.932 122.739 440.076 123.475 438.7 124.947C437.324 126.387 436.636 128.467 436.636 131.187V144.291H432.028V118.851H436.444V122.643C437.372 121.331 438.588 120.339 440.092 119.667C441.596 118.963 443.308 118.611 445.228 118.611C447.212 118.611 448.972 119.011 450.508 119.811C452.044 120.611 453.228 121.779 454.06 123.315C455.02 121.843 456.348 120.691 458.044 119.859C459.772 119.027 461.708 118.611 463.852 118.611ZM505.879 131.715C505.879 132.067 505.847 132.531 505.783 133.107H485.143C485.431 135.347 486.407 137.155 488.071 138.531C489.767 139.875 491.863 140.547 494.359 140.547C497.399 140.547 499.847 139.523 501.703 137.475L504.247 140.451C503.095 141.795 501.655 142.819 499.927 143.523C498.231 144.227 496.327 144.579 494.215 144.579C491.527 144.579 489.143 144.035 487.063 142.947C484.983 141.827 483.367 140.275 482.215 138.291C481.095 136.307 480.535 134.067 480.535 131.571C480.535 129.107 481.079 126.883 482.167 124.899C483.287 122.915 484.807 121.379 486.727 120.291C488.679 119.171 490.871 118.611 493.303 118.611C495.735 118.611 497.895 119.171 499.783 120.291C501.703 121.379 503.191 122.915 504.247 124.899C505.335 126.883 505.879 129.155 505.879 131.715ZM493.303 122.499C491.095 122.499 489.239 123.171 487.735 124.515C486.263 125.859 485.399 127.619 485.143 129.795H501.463C501.207 127.651 500.327 125.907 498.823 124.563C497.351 123.187 495.511 122.499 493.303 122.499ZM525.862 118.611C529.094 118.611 531.654 119.555 533.542 121.443C535.462 123.299 536.422 126.035 536.422 129.651V144.291H531.814V130.179C531.814 127.715 531.222 125.859 530.038 124.611C528.854 123.363 527.158 122.739 524.95 122.739C522.454 122.739 520.486 123.475 519.046 124.947C517.606 126.387 516.886 128.467 516.886 131.187V144.291H512.278V118.851H516.694V122.691C517.622 121.379 518.87 120.371 520.438 119.667C522.038 118.963 523.846 118.611 525.862 118.611ZM559.254 142.803C558.582 143.379 557.75 143.827 556.758 144.147C555.766 144.435 554.742 144.579 553.686 144.579C551.126 144.579 549.142 143.891 547.734 142.515C546.326 141.139 545.622 139.171 545.622 136.611V122.643H541.302V118.851H545.622V113.283H550.23V118.851H557.526V122.643H550.23V136.419C550.23 137.795 550.566 138.851 551.238 139.587C551.942 140.323 552.934 140.691 554.214 140.691C555.622 140.691 556.822 140.291 557.814 139.491L559.254 142.803ZM255.308 186.299H259.916V199.403C258.252 200.779 256.316 201.835 254.108 202.571C251.9 203.307 249.596 203.675 247.196 203.675C243.804 203.675 240.748 202.939 238.028 201.467C235.308 199.963 233.164 197.915 231.596 195.323C230.06 192.699 229.292 189.755 229.292 186.491C229.292 183.227 230.06 180.283 231.596 177.659C233.164 175.035 235.308 172.987 238.028 171.515C240.78 170.043 243.868 169.307 247.292 169.307C249.98 169.307 252.412 169.755 254.588 170.651C256.796 171.515 258.668 172.795 260.204 174.491L257.228 177.467C254.54 174.875 251.292 173.579 247.484 173.579C244.924 173.579 242.62 174.139 240.572 175.259C238.556 176.347 236.972 177.883 235.82 179.867C234.668 181.819 234.092 184.027 234.092 186.491C234.092 188.923 234.668 191.131 235.82 193.115C236.972 195.067 238.556 196.603 240.572 197.723C242.62 198.843 244.908 199.403 247.436 199.403C250.444 199.403 253.068 198.683 255.308 197.243V186.299ZM272.85 182.123C273.65 180.651 274.834 179.531 276.402 178.763C277.97 177.995 279.874 177.611 282.114 177.611V182.075C281.858 182.043 281.506 182.027 281.058 182.027C278.562 182.027 276.594 182.779 275.154 184.283C273.746 185.755 273.042 187.867 273.042 190.619V203.291H268.434V177.851H272.85V182.123ZM298.455 203.579C295.927 203.579 293.655 203.019 291.639 201.899C289.623 200.779 288.039 199.243 286.887 197.291C285.767 195.307 285.207 193.067 285.207 190.571C285.207 188.075 285.767 185.851 286.887 183.899C288.039 181.915 289.623 180.379 291.639 179.291C293.655 178.171 295.927 177.611 298.455 177.611C300.983 177.611 303.239 178.171 305.223 179.291C307.239 180.379 308.807 181.915 309.927 183.899C311.079 185.851 311.655 188.075 311.655 190.571C311.655 193.067 311.079 195.307 309.927 197.291C308.807 199.243 307.239 200.779 305.223 201.899C303.239 203.019 300.983 203.579 298.455 203.579ZM298.455 199.547C300.087 199.547 301.543 199.179 302.823 198.443C304.135 197.675 305.159 196.619 305.895 195.275C306.631 193.899 306.999 192.331 306.999 190.571C306.999 188.811 306.631 187.259 305.895 185.915C305.159 184.539 304.135 183.483 302.823 182.747C301.543 182.011 300.087 181.643 298.455 181.643C296.823 181.643 295.351 182.011 294.039 182.747C292.759 183.483 291.735 184.539 290.967 185.915C290.231 187.259 289.863 188.811 289.863 190.571C289.863 192.331 290.231 193.899 290.967 195.275C291.735 196.619 292.759 197.675 294.039 198.443C295.351 199.179 296.823 199.547 298.455 199.547ZM341.74 177.851V203.291H337.372V199.451C336.444 200.763 335.212 201.787 333.676 202.523C332.172 203.227 330.524 203.579 328.732 203.579C325.34 203.579 322.668 202.651 320.716 200.795C318.764 198.907 317.788 196.139 317.788 192.491V177.851H322.396V191.963C322.396 194.427 322.988 196.299 324.172 197.579C325.356 198.827 327.052 199.451 329.26 199.451C331.692 199.451 333.612 198.715 335.02 197.243C336.428 195.771 337.132 193.691 337.132 191.003V177.851H341.74ZM364 177.611C366.464 177.611 368.672 178.155 370.624 179.243C372.576 180.331 374.096 181.851 375.184 183.803C376.304 185.755 376.864 188.011 376.864 190.571C376.864 193.131 376.304 195.403 375.184 197.387C374.096 199.339 372.576 200.859 370.624 201.947C368.672 203.035 366.464 203.579 364 203.579C362.176 203.579 360.496 203.227 358.96 202.523C357.456 201.819 356.176 200.795 355.12 199.451V212.603H350.512V177.851H354.928V181.883C355.952 180.475 357.248 179.419 358.816 178.715C360.384 177.979 362.112 177.611 364 177.611ZM363.616 199.547C365.248 199.547 366.704 199.179 367.984 198.443C369.296 197.675 370.32 196.619 371.056 195.275C371.824 193.899 372.208 192.331 372.208 190.571C372.208 188.811 371.824 187.259 371.056 185.915C370.32 184.539 369.296 183.483 367.984 182.747C366.704 182.011 365.248 181.643 363.616 181.643C362.016 181.643 360.56 182.027 359.248 182.795C357.968 183.531 356.944 184.571 356.176 185.915C355.44 187.259 355.072 188.811 355.072 190.571C355.072 192.331 355.44 193.899 356.176 195.275C356.912 196.619 357.936 197.675 359.248 198.443C360.56 199.179 362.016 199.547 363.616 199.547Z" fill="#0F2547"/>
<path d="M44.4495 226.05H27.7831L24.3333 233.891H19.7187L33.921 202.529H38.3564L52.6034 233.891H47.8992L44.4495 226.05ZM42.8814 222.466L36.1163 207.099L29.3512 222.466H42.8814ZM80.7133 229.993V233.891H54.504V230.844L74.217 206.427H54.8176V202.529H80.1308V205.576L60.5075 229.993H80.7133ZM100.4 234.249C97.2638 234.249 94.4263 233.562 91.8875 232.188C89.3786 230.785 87.4073 228.873 85.9737 226.454C84.54 224.004 83.8232 221.257 83.8232 218.21C83.8232 215.164 84.54 212.431 85.9737 210.011C87.4073 207.562 89.3935 205.651 91.9323 204.277C94.4711 202.873 97.3086 202.171 100.445 202.171C102.894 202.171 105.134 202.589 107.165 203.425C109.196 204.232 110.928 205.441 112.362 207.054L109.45 209.877C107.09 207.398 104.148 206.158 100.624 206.158C98.2942 206.158 96.1885 206.681 94.3068 207.726C92.4252 208.772 90.9467 210.22 89.8714 212.072C88.8261 213.894 88.3034 215.94 88.3034 218.21C88.3034 220.48 88.8261 222.541 89.8714 224.393C90.9467 226.215 92.4252 227.648 94.3068 228.694C96.1885 229.739 98.2942 230.262 100.624 230.262C104.119 230.262 107.061 229.007 109.45 226.498L112.362 229.321C110.928 230.934 109.181 232.158 107.12 232.995C105.089 233.831 102.849 234.249 100.4 234.249ZM118.753 202.529H131.97C135.285 202.529 138.227 203.186 140.796 204.501C143.365 205.815 145.351 207.667 146.755 210.056C148.188 212.416 148.905 215.134 148.905 218.21C148.905 221.286 148.188 224.019 146.755 226.409C145.351 228.768 143.365 230.605 140.796 231.92C138.227 233.234 135.285 233.891 131.97 233.891H118.753V202.529ZM131.701 229.993C134.24 229.993 136.465 229.5 138.377 228.515C140.318 227.529 141.812 226.155 142.857 224.393C143.902 222.601 144.425 220.54 144.425 218.21C144.425 215.88 143.902 213.834 142.857 212.072C141.812 210.28 140.318 208.891 138.377 207.906C136.465 206.92 134.24 206.427 131.701 206.427H123.234V229.993H131.701Z" fill="#0F2547"/>
<path d="M59.4821 255.901H61.706V262.225C60.9029 262.889 59.9685 263.399 58.9029 263.754C57.8373 264.109 56.7253 264.287 55.5671 264.287C53.93 264.287 52.4551 263.932 51.1424 263.221C49.8297 262.495 48.795 261.507 48.0382 260.256C47.2969 258.99 46.9263 257.569 46.9263 255.993C46.9263 254.418 47.2969 252.997 48.0382 251.731C48.795 250.465 49.8297 249.476 51.1424 248.766C52.4706 248.055 53.9609 247.7 55.6134 247.7C56.9107 247.7 58.0844 247.916 59.1346 248.349C60.2002 248.766 61.1037 249.383 61.845 250.202L60.4087 251.638C59.1114 250.387 57.5439 249.762 55.7061 249.762C54.4706 249.762 53.3586 250.032 52.3702 250.573C51.3972 251.098 50.6328 251.839 50.0768 252.797C49.5208 253.739 49.2428 254.804 49.2428 255.993C49.2428 257.167 49.5208 258.233 50.0768 259.19C50.6328 260.132 51.3972 260.874 52.3702 261.414C53.3586 261.955 54.4628 262.225 55.6829 262.225C57.1346 262.225 58.401 261.878 59.4821 261.183V255.901ZM67.9482 253.885C68.3343 253.175 68.9057 252.634 69.6625 252.264C70.4192 251.893 71.3381 251.708 72.4192 251.708V253.862C72.2957 253.847 72.1258 253.839 71.9096 253.839C70.7049 253.839 69.7551 254.202 69.0602 254.928C68.3807 255.638 68.0409 256.658 68.0409 257.986V264.101H65.817V251.824H67.9482V253.885ZM80.3057 264.24C79.0856 264.24 77.9891 263.97 77.0161 263.43C76.0432 262.889 75.2787 262.148 74.7227 261.206C74.1822 260.248 73.9119 259.167 73.9119 257.963C73.9119 256.758 74.1822 255.685 74.7227 254.742C75.2787 253.785 76.0432 253.044 77.0161 252.519C77.9891 251.978 79.0856 251.708 80.3057 251.708C81.5257 251.708 82.6145 251.978 83.572 252.519C84.545 253.044 85.3017 253.785 85.8423 254.742C86.3983 255.685 86.6762 256.758 86.6762 257.963C86.6762 259.167 86.3983 260.248 85.8423 261.206C85.3017 262.148 84.545 262.889 83.572 263.43C82.6145 263.97 81.5257 264.24 80.3057 264.24ZM80.3057 262.295C81.0933 262.295 81.796 262.117 82.4138 261.762C83.047 261.391 83.5412 260.881 83.8964 260.233C84.2516 259.569 84.4292 258.812 84.4292 257.963C84.4292 257.113 84.2516 256.364 83.8964 255.715C83.5412 255.051 83.047 254.542 82.4138 254.187C81.796 253.831 81.0933 253.654 80.3057 253.654C79.518 253.654 78.8076 253.831 78.1744 254.187C77.5567 254.542 77.0625 255.051 76.6918 255.715C76.3366 256.364 76.159 257.113 76.159 257.963C76.159 258.812 76.3366 259.569 76.6918 260.233C77.0625 260.881 77.5567 261.391 78.1744 261.762C78.8076 262.117 79.518 262.295 80.3057 262.295ZM101.196 251.824V264.101H99.0876V262.248C98.6398 262.881 98.0452 263.376 97.3039 263.731C96.578 264.071 95.7827 264.24 94.9178 264.24C93.2808 264.24 91.9912 263.793 91.0491 262.897C90.1071 261.986 89.636 260.65 89.636 258.889V251.824H91.8599V258.634C91.8599 259.824 92.1456 260.727 92.7171 261.345C93.2885 261.947 94.107 262.248 95.1726 262.248C96.3464 262.248 97.273 261.893 97.9525 261.183C98.632 260.472 98.9718 259.468 98.9718 258.171V251.824H101.196ZM111.939 251.708C113.128 251.708 114.194 251.97 115.136 252.495C116.078 253.021 116.812 253.754 117.337 254.696C117.877 255.638 118.147 256.727 118.147 257.963C118.147 259.198 117.877 260.295 117.337 261.252C116.812 262.194 116.078 262.928 115.136 263.453C114.194 263.978 113.128 264.24 111.939 264.24C111.059 264.24 110.248 264.071 109.507 263.731C108.781 263.391 108.163 262.897 107.653 262.248V268.596H105.429V251.824H107.561V253.77C108.055 253.09 108.68 252.58 109.437 252.241C110.194 251.885 111.028 251.708 111.939 251.708ZM111.754 262.295C112.541 262.295 113.244 262.117 113.862 261.762C114.495 261.391 114.989 260.881 115.344 260.233C115.715 259.569 115.9 258.812 115.9 257.963C115.9 257.113 115.715 256.364 115.344 255.715C114.989 255.051 114.495 254.542 113.862 254.187C113.244 253.831 112.541 253.654 111.754 253.654C110.981 253.654 110.279 253.839 109.646 254.21C109.028 254.565 108.534 255.067 108.163 255.715C107.808 256.364 107.63 257.113 107.63 257.963C107.63 258.812 107.808 259.569 108.163 260.233C108.518 260.881 109.012 261.391 109.646 261.762C110.279 262.117 110.981 262.295 111.754 262.295Z" fill="#0F2547"/>
<path d="M87.36 2.20999L115.94 18.33L115.17 15.59L87.41 0L87.36 2.20999Z" fill="#0F2547"/>
<path d="M26.7 65.64L0 81.53L0.0599976 65.26L26.69 49L26.7 65.64Z" fill="#0F2547"/>
<path d="M26.66 50.66L48.15 62.79L47.57 60.73L26.69 49L26.66 50.66Z" fill="#0F2547"/>
<path d="M26.67 70.6L48.17 82.73L47.58 80.67L26.69 68.94L26.67 70.6Z" fill="#0F2547"/>
<path d="M26.66 92.1L48.15 104.23L47.57 102.17L26.68 90.44L26.66 92.1Z" fill="#0F2547"/>
<path d="M26.66 112.5L48.15 124.62L47.57 122.56L26.68 110.83L26.66 112.5Z" fill="#0F2547"/>
<path d="M26.66 133.55L48.16 145.68L47.58 143.62L26.68 131.89L26.66 133.55Z" fill="#0F2547"/>
<path d="M26.67 154.38L48.16 166.51L47.58 164.45L26.69 152.72L26.67 154.38Z" fill="#0F2547"/>
<path d="M26.7 85.59L0 101.48L0.0599976 85.21L26.69 68.95L26.7 85.59Z" fill="#0F2547"/>
<path d="M26.7 107.08L0 122.97L0.0599976 106.7L26.69 90.44L26.7 107.08Z" fill="#0F2547"/>
<path d="M26.7 127.48L0 143.36L0.0599976 127.09L26.69 110.83L26.7 127.48Z" fill="#0F2547"/>
<path d="M26.7 148.53L0 164.42L0.0599976 148.15L26.69 131.89L26.7 148.53Z" fill="#0F2547"/>
<path d="M26.7 169.36L0 185.25L0.0599976 168.98L26.69 152.72L26.7 169.36Z" fill="#0F2547"/>
<path d="M149.28 61.48L122.59 77.37L122.65 61.1L149.28 44.84V61.48Z" fill="#0F2547"/>
<path d="M149.24 46.5L170.74 58.62L170.16 56.56L149.28 44.83L149.24 46.5Z" fill="#0F2547"/>
<path d="M149.24 66.45L170.74 78.58L170.16 76.52L149.26 64.79L149.24 66.45Z" fill="#0F2547"/>
<path d="M149.24 87.95L170.74 100.07L170.16 98.01L149.26 86.28L149.24 87.95Z" fill="#0F2547"/>
<path d="M149.25 108.34L170.75 120.46L170.17 118.4L149.27 106.68L149.25 108.34Z" fill="#0F2547"/>
<path d="M149.25 129.39L170.74 141.52L170.16 139.46L149.27 127.73L149.25 129.39Z" fill="#0F2547"/>
<path d="M149.25 150.22L170.74 162.35L170.16 160.29L149.27 148.56L149.25 150.22Z" fill="#0F2547"/>
<path d="M149.28 81.43L122.59 97.32L122.65 81.05L149.28 64.79V81.43Z" fill="#0F2547"/>
<path d="M149.28 102.93L122.59 118.81L122.65 102.54L149.28 86.28V102.93Z" fill="#0F2547"/>
<path d="M149.28 123.32L122.59 139.2L122.65 122.93L149.28 106.68V123.32Z" fill="#0F2547"/>
<path d="M149.28 144.37L122.59 160.26L122.65 143.99L149.28 127.73V144.37Z" fill="#0F2547"/>
<path d="M149.28 165.2L122.59 181.09L122.65 164.82L149.28 148.56V165.2Z" fill="#0F2547"/>
<path d="M87.45 22.12L51.97 43.24L52.04 21.61L87.44 0L87.45 22.12Z" fill="#0F2547"/>
<path d="M87.41 28.73L115.99 44.85L115.22 42.11L87.44 26.52L87.41 28.73Z" fill="#0F2547"/>
<path d="M87.41 57.3L115.99 73.42L115.22 70.68L87.44 55.09L87.41 57.3Z" fill="#0F2547"/>
<path d="M87.4 84.41L115.98 100.52L115.21 97.79L87.43 82.2L87.4 84.41Z" fill="#0F2547"/>
<path d="M87.4 112.39L115.98 128.51L115.21 125.77L87.43 110.18L87.4 112.39Z" fill="#0F2547"/>
<path d="M87.41 140.08L115.99 156.2L115.22 153.47L87.44 137.88L87.41 140.08Z" fill="#0F2547"/>
<path d="M87.45 48.64L51.97 69.76L52.04 48.13L87.44 26.52L87.45 48.64Z" fill="#0F2547"/>
<path d="M87.45 77.21L51.97 98.33L52.04 76.7L87.44 55.09L87.45 77.21Z" fill="#0F2547"/>
<path d="M87.45 104.32L51.97 125.44L52.04 103.81L87.44 82.2L87.45 104.32Z" fill="#0F2547"/>
<path d="M87.45 132.31L51.97 153.42L52.04 131.8L87.44 110.18L87.45 132.31Z" fill="#0F2547"/>
<path d="M87.45 160L51.97 181.11L52.04 159.49L87.44 137.88L87.45 160Z" fill="#0F2547"/>
</svg>